<?xml version="1.0" encoding="UTF-8"?><svg id="Layer_1" xmlns="http://www.w3.org/2000/svg" viewBox="0 0 107.49 107.18"><g id="CMYK:_BLACK"><g><path d="M61.39,68.23c2.03-7.36,1.91-12.14,.06-19.14-1.62,.24-3.29,.54-4.91,.6,1.2,2.03,.9,4.19,.66,5.98h-7.24c-.42-2.39-.48-4.19,.6-6.04-1.73-.12-3.47-.36-5.2-.6-1.85,7.06-1.32,12.62,.06,19.2,0,.06,.12,.12,.06,.12,.9,0,2.03,.42,2.51,.06,1.08-.72,1.91-1.2,2.51-1.2,.06,0,0,0-.06-.06-.72-2.21-1.38-4.97-.6-6.76h7.12c.72,1.79,.12,4.55-.6,6.76,0,.06,0,.12-.06,.12,.66,0,1.5,.42,2.51,1.14,.48,.3,1.56-.12,2.51-.12,.12,.12,.06,0,.06-.06Z" fill="#ee7623"/><path d="M53.32,49.98c-9.09,0-18.07-2.15-26.2-6.22-.36-.18-.54-.6-.48-.9,.06-.42,.18-.84,.24-1.2,.06-.42,.12-.84,.24-1.26,.06-.24,.24-.36,.48-.36,.12,0,.24,0,.3,.06,5.5,2.75,11.37,4.55,17.41,5.44l.12-3.71c.12-2.39,1.08-4.43,1.91-6.4,.3-.66,.6-1.32,.84-1.97,.6-1.44,.9-2.75,1.02-3.95v-.54c0-.36-.06-.72-.12-1.08v-.36c-.06-.54-.12-.96-.12-1.44,0-.3,.12-.6,.24-.84,.18-.3,.36-.54,.6-.72,.18-.12,.36-.18,.66-.18h.24c.54,.06,1.08,.36,1.62,.84,.24,.18,.42,.42,.6,.66s.3,.42,.48,.6c.12,.12,.24,.18,.36,.18,.06,0,.12,0,.24-.06,.24-.18,.42-.42,.6-.66s.36-.42,.6-.66c.54-.48,1.08-.78,1.62-.84h.24c.24,0,.48,.06,.6,.18,.24,.18,.42,.36,.6,.72,.12,.24,.18,.54,.24,.84,.06,.48,0,.9-.12,1.44l-.06,.3c-.06,.36-.12,.78-.18,1.14v.54c.12,1.2,.48,2.51,1.02,3.95,.24,.66,.54,1.32,.84,1.97,.9,1.97,1.79,4.07,1.91,6.4l.12,3.71c6.1-.9,11.97-2.69,17.41-5.44,.12-.06,.24-.06,.3-.06,.24,0,.42,.18,.48,.36,.06,.42,.18,.84,.24,1.26s.12,.84,.24,1.2c.06,.36-.24,.78-.6,.9-8.14,4.07-16.99,6.22-26.14,6.22,.06-.06-.6-.06-.6-.06Z" fill="#fff"/><path d="M61.93,83.31c-.84,0-1.62-.18-2.33-.36-.66-.18-1.32-.3-1.97-.3,0,0-.06,.06-.18,.12-.24,.18-.54,.42-.9,.42h-.24c-.42,0-.9-.12-1.32-.18h-.06c-.24-.06-.42-.12-.6-.3-.12-.18-.24-.36-.36-.6-.12-.36-.18-.72-.3-1.08l-.06-.24c-.6-2.87,.12-5.74,.78-8.5,.3-1.26,.6-2.57,.78-3.77l.12-.84c.06-.36,.42-.6,.9-.66h.12c.42,0,.78,.18,1.08,.24,.6,.24,1.14,.66,1.68,1.02,0,0,.06,.06,.3,.06s.54-.06,.84-.12c.36-.06,.78-.12,1.14-.12,.24,0,.48,0,.6,.06,1.08,.3,1.14,1.02,1.14,1.44-.06,.54-.3,1.08-.54,1.62-.12,.24-.18,.42-.24,.54,0,.78-.36,1.73-.78,2.75-.54,1.38-1.08,2.75-.6,3.71,.18,.3,.42,.6,.84,.78,.18,.12,.42,.24,.66,.3,.18,.06,.24,.12,.36,.12h.06c.12,0,.18-.06,.3-.06,.12-.06,.18-.06,.3-.12l.24-.06c.54-.24,1.14-.42,1.73-.54h.42c.24,0,.48,.06,.66,.12,.24,.12,.42,.3,.6,.48l.3,.3c.24,.24,.6,.78,.36,1.08-.18,.18-.36,.36-.6,.48-.06,.06-.12,.06-.18,.12-.3,.18-.6,.36-.9,.54l-.36,.18c-.18,.12-.36,.18-.54,.3-.06,.06-.12,.06-.24,.12-.06,.06-.12,.06-.18,.12-.36,.18-.6,.3-.9,.42-.66,.3-1.26,.42-1.91,.42Z" fill="#fff"/><path d="M45,83.31c-.6,0-1.26-.12-1.97-.42-.3-.12-.6-.24-.9-.42-.06-.06-.12-.06-.18-.12s-.12-.06-.24-.12c-.18-.06-.36-.18-.54-.3l-.36-.18c-.3-.18-.6-.36-.9-.54-.06-.06-.12-.06-.18-.12-.18-.12-.42-.24-.6-.48-.24-.3,.12-.84,.36-1.08l.3-.3c.18-.18,.36-.36,.6-.48,.18-.06,.42-.12,.66-.12h.42c.6,.06,1.2,.3,1.73,.54l.24,.06c.12,.06,.18,.06,.3,.12s.18,.06,.3,.06h.06c.12,0,.18-.06,.3-.06,.3-.12,.54-.24,.72-.3,.36-.24,.66-.48,.84-.78,.48-.96-.06-2.39-.6-3.71-.42-1.02-.78-1.91-.78-2.81-.06-.12-.12-.3-.24-.48-.24-.54-.54-1.14-.54-1.68,0-.42,.06-1.14,1.14-1.44,.18-.06,.36-.06,.6-.06,.36,0,.78,.06,1.14,.12,.3,.06,.6,.12,.84,.12,.18,0,.24-.06,.3-.06,.54-.36,1.08-.72,1.68-1.02,.24-.12,.66-.24,1.08-.24h.12c.48,.06,.84,.3,.9,.66l.12,.78c.18,1.26,.48,2.51,.78,3.77,.66,2.81,1.38,5.62,.78,8.5l-.06,.24c-.06,.36-.12,.72-.3,1.08-.12,.24-.24,.48-.36,.6-.18,.24-.36,.3-.6,.36h-.06c-.42,.12-.84,.18-1.32,.18h-.24c-.36-.06-.66-.24-.9-.42-.12-.06-.18-.12-.24-.18-.6,0-1.2,.18-1.91,.36-.72,.18-1.5,.36-2.27,.36Z" fill="#fff"/><path d="M63.49,75.29c.24,0,.54,.06,.78,.18,.24,.12,.42,.3,.6,.6,.12,.24,.24,.54,.24,.78,0,.3-.06,.54-.18,.78-.12,.24-.36,.42-.6,.6-.24,.12-.48,.18-.78,.18s-.54-.06-.78-.18c-.24-.12-.42-.36-.6-.6-.12-.24-.18-.48-.18-.78s.06-.54,.24-.78c.12-.24,.36-.42,.6-.6,.12-.12,.36-.18,.66-.18Zm0,.3c-.24,0-.42,.06-.6,.18-.18,.12-.36,.24-.48,.48-.12,.18-.18,.42-.18,.66s.06,.42,.18,.6c.12,.18,.24,.36,.48,.48,.18,.12,.42,.18,.6,.18,.24,0,.42-.06,.6-.18,.18-.12,.36-.24,.48-.48,.12-.18,.18-.42,.18-.6,0-.24-.06-.42-.18-.66-.12-.18-.3-.36-.48-.48s-.42-.18-.6-.18Zm-.72,2.09v-1.68h.9c.12,0,.18,.06,.24,.06,.06,.06,.12,.06,.18,.18,.06,.06,.06,.18,.06,.24,0,.12-.06,.24-.12,.3s-.18,.12-.36,.18c.06,0,.06,.06,.12,.06l.12,.12s.06,.06,.12,.18l.18,.36h-.42l-.12-.3c-.12-.18-.18-.3-.24-.36s-.12-.06-.24-.06h-.06v.66h-.36v.06Zm.36-.96h.48c.06,0,.06-.06,.12-.06,0-.06,.06-.06,.06-.12s0-.06-.06-.12c0-.06-.06-.06-.12-.06h-.48v.36Z" fill="#fff"/><path d="M67.38,79.66l-.3-.3c-.18-.18-.36-.36-.6-.42-.3-.12-.66-.12-1.02-.06-.6,.06-1.14,.3-1.73,.48-.18,.06-.36,.12-.48,.18-.12,.06-.3,.12-.42,.06-.12,0-.24-.06-.36-.12-.24-.06-.48-.18-.72-.3-.36-.18-.66-.48-.84-.84-.54-1.02,.06-2.45,.6-3.83,.36-.96,.78-1.91,.78-2.75,.06-.18,.18-.36,.24-.54,.24-.54,.48-1.08,.54-1.62,.06-.48-.12-1.08-1.02-1.32-.54-.18-1.2-.06-1.79,0-.3,.06-.6,.12-.84,.12-.18,0-.3-.06-.36-.06-.54-.36-1.08-.72-1.68-.96-.36-.18-.78-.3-1.14-.24-.3,0-.72,.18-.78,.54,0,.12-.06,.24-.06,.36,0,.18-.06,.3-.06,.48-.18,1.26-.48,2.57-.78,3.77-.66,2.75-1.38,5.62-.78,8.44,.12,.42,.18,.9,.3,1.32,.06,.18,.18,.42,.3,.6,.18,.24,.36,.24,.6,.3,.54,.12,1.02,.24,1.5,.18,.3,0,.6-.24,.84-.42,.12-.06,.24-.18,.24-.18,.66,0,1.32,.18,1.97,.36,.72,.18,1.5,.36,2.33,.36,.66,0,1.32-.18,1.91-.42,.3-.12,.6-.24,.9-.42,.12-.06,.3-.18,.42-.24,.24-.12,.48-.24,.72-.36,.36-.18,.78-.42,1.08-.66,.24-.18,.54-.3,.72-.6,.3-.3-.06-.72-.24-.9Zm-.54,.78c-.06,.06-.18,.12-.24,.12-.24,.18-.54,.36-.84,.48l-.36,.18c-.18,.12-.3,.18-.48,.24-.06,.06-.18,.06-.24,.12s-.12,.06-.18,.12c-.3,.18-.6,.3-.84,.36-.6,.24-1.2,.36-1.68,.36-.72,0-1.44-.18-2.15-.36-.72-.18-1.44-.36-2.15-.36h-.12l-.12,.06c-.12,.06-.18,.12-.42,.24-.18,.12-.36,.24-.54,.3h-.18c-.36,0-.72-.06-1.14-.18h-.06c-.06,0-.12-.06-.18-.06-.12-.12-.18-.24-.24-.42-.12-.3-.18-.6-.24-.96l-.06-.24c-.54-2.69,.12-5.44,.78-8.14,.3-1.26,.66-2.57,.84-3.89l.12-.72c.06,0,.12-.06,.18-.06h.06c.24,0,.54,.12,.78,.18,.54,.24,1.08,.6,1.56,.9,.18,.12,.42,.18,.72,.18s.6-.06,.96-.12c.3-.06,.72-.12,1.02-.12,.18,0,.3,0,.42,.06,.54,.18,.6,.42,.54,.66,0,.36-.24,.9-.48,1.38-.12,.18-.18,.42-.24,.6l-.06,.12v.12c0,.72-.36,1.62-.72,2.51-.6,1.5-1.2,3.11-.54,4.37,.24,.42,.6,.84,1.14,1.14,.24,.12,.48,.24,.84,.36,.18,.06,.3,.12,.54,.12h.18c.24,0,.42-.06,.6-.12,.06-.06,.18-.06,.3-.12l.24-.06c.54-.18,1.02-.42,1.56-.48h.3c.18,0,.3,0,.36,.06,.12,.06,.3,.24,.36,.3l.3,.3,.18,.18c-.18,.18-.3,.24-.36,.3Z"/><path d="M80.12,40.47c-.06-.24-.3-.36-.6-.24-5.62,2.81-11.55,4.61-17.59,5.44l-.18-3.77c-.12-2.33-1.02-4.37-1.91-6.34-.3-.66-.6-1.32-.84-1.97-.48-1.26-.9-2.63-1.08-4.01v-.54c0-.36,.06-.78,.18-1.14,0-.12,.06-.24,.06-.3,.06-.48,.12-.9,.12-1.38,0-.3-.12-.54-.24-.84s-.3-.48-.54-.66c-.3-.18-.6-.18-.84-.12-.6,.06-1.14,.42-1.56,.84-.18,.18-.42,.42-.54,.66-.18,.24-.36,.54-.6,.72s-.48,.12-.72-.12c-.18-.18-.36-.36-.48-.6-.18-.24-.36-.42-.54-.66-.48-.42-.96-.78-1.56-.9-.24-.06-.54,0-.78,.12-.24,.18-.42,.36-.54,.66-.12,.24-.18,.54-.24,.84-.06,.48,0,.9,.12,1.38,0,.12,.06,.24,.06,.3,.06,.36,.12,.78,.18,1.14v.54c-.12,1.38-.54,2.69-1.08,4.01-.24,.66-.54,1.32-.84,1.97-.9,1.97-1.79,4.01-1.91,6.34l-.12,3.83c-6.04-.84-12.02-2.69-17.59-5.44-.3-.12-.54-.06-.6,.24-.3,.84-.42,1.62-.6,2.45-.06,.24,.18,.6,.48,.78,8.32,4.13,17.47,6.16,26.44,6.16s18.13-2.03,26.44-6.16c.3-.12,.54-.48,.48-.78-.18-.84-.3-1.62-.48-2.45Zm-33.86,1.44c.12-2.21,1.02-4.19,1.85-6.1,.3-.66,.6-1.32,.84-1.97,.6-1.5,.96-2.87,1.08-4.13v-.66c0-.42-.12-.84-.18-1.2l-.06-.36c-.06-.48-.12-.84-.06-1.2,0-.24,.06-.42,.18-.6s.18-.3,.3-.36c.06,0,.12-.06,.24-.06h.12c.36,.06,.78,.24,1.14,.66,.18,.18,.36,.36,.48,.54,.18,.3,.36,.48,.54,.66,.36,.36,.66,.42,.9,.42s.48-.06,.66-.24c.36-.24,.6-.6,.78-.84,.12-.18,.3-.36,.48-.54,.3-.24,.72-.6,1.14-.66h.12c.12,0,.18,0,.24,.06,.12,.06,.24,.18,.3,.36,.06,.18,.12,.36,.18,.6,.06,.36,0,.78-.06,1.2l-.06,.3c-.06,.42-.12,.78-.18,1.2v.66c.12,1.32,.48,2.63,1.08,4.19,.24,.66,.54,1.32,.84,1.97,.84,1.91,1.73,3.95,1.85,6.16l.06,1.73c-4.85,.6-9.87,.6-14.84,0l.06-1.79Zm33.62,1.14c-8.02,4.01-17.05,6.04-26.02,6.04h-.3c-8.97,0-18.01-2.03-26.02-6.04-.06,0-.12-.06-.12-.06,.06-.42,.12-.78,.24-1.14,.06-.3,.12-.6,.18-.9,4.19,2.09,8.67,3.65,13.28,4.61,1.79,.42,3.59,.72,5.38,.96,2.33,.3,4.73,.42,7.06,.48h.3c2.33,0,4.73-.18,7.06-.48,1.79-.24,3.65-.54,5.38-.96,4.61-1.02,9.09-2.57,13.28-4.61,.06,.3,.12,.6,.18,.9,.06,.42,.12,.78,.24,1.14-.06,0-.06,.06-.12,.06Z"/><path d="M52.36,72.24c-.3-1.26-.6-2.57-.78-3.77,0-.18-.06-.3-.06-.48,0-.12-.06-.24-.06-.36-.06-.36-.48-.48-.78-.54-.42-.06-.78,.12-1.14,.24-.6,.24-1.14,.6-1.68,.96-.06,.06-.12,.06-.36,.06s-.54-.06-.84-.12c-.6-.12-1.26-.18-1.73-.06-.9,.24-1.08,.84-1.02,1.32,.06,.48,.3,1.08,.54,1.62,.06,.18,.18,.36,.24,.54,0,.84,.36,1.73,.78,2.75,.54,1.38,1.08,2.81,.6,3.83-.18,.36-.48,.66-.84,.84-.24,.12-.48,.24-.72,.3-.12,.06-.24,.12-.36,.12-.18,0-.3,0-.42-.06-.18-.06-.36-.12-.48-.18-.54-.24-1.14-.42-1.73-.48-.36-.06-.72-.06-1.02,.06-.18,.06-.42,.24-.6,.42-.12,.12-.18,.18-.3,.3-.18,.18-.54,.66-.36,.9s.48,.42,.72,.6c.36,.24,.72,.42,1.08,.66,.24,.12,.48,.24,.72,.36,.12,.06,.3,.12,.42,.24,.3,.12,.6,.3,.9,.42,.6,.24,1.26,.42,1.91,.42,.78,0,1.56-.18,2.33-.36,.66-.18,1.32-.3,1.97-.36,.06,0,.18,.12,.24,.18,.24,.18,.48,.36,.84,.42,.54,.06,1.02-.06,1.5-.18,.3-.06,.42-.06,.6-.3,.12-.18,.24-.36,.3-.6,.18-.42,.24-.84,.3-1.32,.66-2.75,0-5.62-.72-8.38Zm.18,8.32l-.06,.24c-.06,.36-.12,.66-.24,.96-.06,.18-.12,.3-.24,.42-.06,.06-.12,.06-.18,.06h-.06c-.42,.12-.78,.18-1.14,.18h-.18c-.12,0-.36-.18-.48-.3-.24-.18-.3-.24-.42-.24l-.12-.06h-.12c-.72,0-1.38,.18-2.09,.36-.72,.18-1.44,.36-2.15,.36-.54,0-1.08-.12-1.68-.36-.24-.12-.54-.24-.84-.36-.06-.06-.12-.06-.18-.12s-.18-.06-.24-.12c-.18-.06-.3-.18-.48-.24l-.36-.18c-.3-.18-.6-.3-.84-.48-.06-.06-.12-.12-.24-.12-.06-.06-.18-.12-.24-.18,.06-.06,.12-.12,.18-.18l.3-.3c.06-.06,.24-.24,.36-.3s.24-.06,.36-.06h.3c.54,.06,1.08,.24,1.56,.48l.24,.06c.12,.06,.18,.06,.3,.12,.18,.06,.36,.12,.6,.12h.18c.18,0,.36-.06,.48-.12,.36-.12,.6-.24,.84-.36,.54-.3,.9-.66,1.14-1.14,.66-1.26,.06-2.87-.54-4.37-.36-.96-.72-1.79-.72-2.51v-.12l-.24-.24c-.06-.18-.18-.42-.24-.6-.24-.48-.48-1.02-.48-1.38,0-.24,0-.48,.54-.66,.12,0,.24-.06,.42-.06,.3,0,.72,.06,1.02,.12,.36,.06,.66,.12,.96,.12s.54-.06,.72-.18c.48-.36,1.02-.66,1.56-.9,.18-.06,.48-.18,.78-.18h.06c.12,0,.18,.06,.18,.06l.12,.78c.18,1.26,.48,2.57,.84,3.83,.66,2.63,1.32,5.44,.78,8.14Z"/></g></g><path d="M53.65,95.65c-23.05,0-41.81-18.76-41.81-41.81S30.59,12.03,53.65,12.03s41.81,18.76,41.81,41.81-18.76,41.81-41.81,41.81Zm0-77.81c-19.85,0-36,16.15-36,36s16.15,36,36,36,36-16.15,36-36S73.5,17.84,53.65,17.84Z" fill="#002e5d"/><path d="M46.46,107.18c-.14,0-.27,0-.41-.03-3.53-.5-7.02-1.35-10.37-2.54-1.51-.54-2.31-2.2-1.77-3.71,.54-1.51,2.2-2.3,3.71-1.77,2.99,1.06,6.1,1.82,9.25,2.26,1.59,.22,2.69,1.69,2.47,3.28-.21,1.45-1.45,2.5-2.87,2.5Zm18.83-.83c-1.32,0-2.51-.91-2.83-2.24-.37-1.56,.6-3.13,2.17-3.49,3.09-.72,6.12-1.76,9.01-3.08,1.46-.67,3.18-.03,3.85,1.43,.67,1.46,.03,3.18-1.43,3.85-3.24,1.48-6.64,2.65-10.1,3.46-.22,.05-.45,.08-.66,.08Zm-44.94-11.05c-.67,0-1.35-.23-1.9-.71-2.69-2.33-5.16-4.93-7.35-7.74-.98-1.27-.76-3.09,.51-4.08,1.27-.99,3.09-.75,4.08,.51,1.95,2.51,4.16,4.83,6.56,6.91,1.21,1.05,1.35,2.88,.3,4.1-.57,.66-1.38,1.01-2.2,1.01Zm69.89-3.11c-.73,0-1.46-.27-2.02-.82-1.15-1.12-1.18-2.96-.07-4.11,2.21-2.28,4.2-4.79,5.92-7.46,.87-1.35,2.67-1.74,4.02-.87,1.35,.87,1.74,2.67,.87,4.02-1.92,2.99-4.16,5.8-6.63,8.36-.57,.59-1.33,.88-2.09,.88ZM4.78,71.19c-1.25,0-2.41-.82-2.79-2.08C.99,65.7,.32,62.17,.01,58.62c-.14-1.6,1.04-3.01,2.64-3.15,1.6-.14,3.01,1.04,3.15,2.64,.28,3.17,.88,6.32,1.77,9.35,.45,1.54-.43,3.16-1.96,3.61-.27,.08-.55,.12-.82,.12Zm98.81-4.4c-.19,0-.38-.02-.57-.06-1.57-.31-2.59-1.84-2.28-3.42,.62-3.1,.93-6.29,.93-9.48v-.21c0-1.6,1.3-2.91,2.91-2.91s2.91,1.3,2.91,2.91v.21c0,3.57-.35,7.14-1.05,10.62-.28,1.38-1.49,2.34-2.85,2.34ZM4.73,42.51c-.27,0-.54-.04-.81-.12-1.54-.45-2.43-2.06-1.98-3.6,.99-3.42,2.34-6.75,3.99-9.91,.74-1.42,2.5-1.97,3.92-1.23,1.42,.74,1.97,2.5,1.23,3.92-1.48,2.82-2.67,5.79-3.56,8.83-.37,1.27-1.53,2.1-2.79,2.1Zm96.31-4.48c-1.16,0-2.25-.7-2.7-1.84-1.17-2.95-2.64-5.8-4.37-8.46-.87-1.35-.49-3.15,.85-4.02,1.35-.87,3.15-.49,4.02,.85,1.94,2.99,3.59,6.18,4.9,9.49,.59,1.49-.14,3.18-1.63,3.77-.35,.14-.71,.2-1.07,.2ZM20.19,18.34c-.81,0-1.62-.34-2.19-1-1.05-1.21-.93-3.04,.28-4.1,2.69-2.34,5.61-4.42,8.7-6.18,1.39-.8,3.17-.31,3.96,1.08,.8,1.39,.31,3.17-1.08,3.96-2.75,1.57-5.36,3.43-7.76,5.52-.55,.48-1.23,.72-1.91,.72Zm63.2-2.94c-.59,0-1.18-.18-1.7-.55-2.58-1.86-5.35-3.47-8.24-4.77-1.46-.66-2.11-2.38-1.45-3.85,.66-1.46,2.38-2.11,3.85-1.45,3.24,1.47,6.34,3.27,9.24,5.35,1.3,.94,1.6,2.75,.66,4.06-.57,.79-1.46,1.21-2.36,1.21ZM46.24,6.35c-1.42,0-2.66-1.04-2.87-2.49-.23-1.59,.87-3.06,2.46-3.29C49.33,.05,52.96-.11,56.48,.07c1.6,.08,2.83,1.45,2.75,3.05s-1.44,2.83-3.05,2.75c-3.15-.16-6.39-.02-9.52,.44-.14,.02-.28,.03-.42,.03Z" fill="#ef7622"/></svg>