<svg xmlns="http://www.w3.org/2000/svg" width="49" height="49" viewBox="0 0 49 49">
  <g id="Group_50" data-name="Group 50" transform="translate(-33 -565)">
    <g id="Group_42" data-name="Group 42" transform="translate(37.562 498.054)">
      <path id="Path_6" data-name="Path 6" d="M8.952,100.242H6.213v-1.3h.2c.215,0,.431-.005.646,0,.1,0,.13-.031.142-.128a7,7,0,0,1,.793-2.543A5.6,5.6,0,0,1,10.2,94.008a.752.752,0,0,1,.394-.1c.349.007.7,0,1.056,0V84.779c-.053,0-.1-.007-.156-.007-.8,0-1.6,0-2.4,0-.12,0-.149-.034-.145-.151a1.684,1.684,0,0,1,1.443-1.69,1.355,1.355,0,0,1,.218-.014H27.115A1.694,1.694,0,0,1,28.8,84.682c0,.107-.069.09-.131.09H25.82c.074.231.141.443.209.654l2.455,7.617c.125.386.246.774.377,1.158a.247.247,0,0,0,.126.141,8.428,8.428,0,0,1,4.3,3.468c.116.177.223.359.331.54a.662.662,0,0,1,.041.124h-.152c-.707,0-1.414,0-2.121,0a.172.172,0,0,1-.173-.1,3.281,3.281,0,0,0-6.034.845c-.023.091-.055.123-.152.123q-4.724,0-9.447,0a.139.139,0,0,1-.164-.127,3.284,3.284,0,0,0-6.338-.136,3.242,3.242,0,0,0-.131,1.011C8.953,100.141,8.952,100.185,8.952,100.242Zm18.64-6.254c-.015-.051-.026-.093-.039-.134q-.285-.881-.57-1.762-1.156-3.582-2.309-7.165a.192.192,0,0,0-.222-.158c-1.4,0-2.8,0-4.193,0h-7.3c-.089,0-.149,0-.149.124q.005,4.444,0,8.887c0,.114.04.132.141.132,1.146,0,2.292,0,3.438,0a.226.226,0,0,1,.23.129c.657,1.155,1.319,2.306,1.978,3.459a.181.181,0,0,0,.18.108q2.657,0,5.315,0a.159.159,0,0,0,.162-.094c.357-.656.719-1.31,1.079-1.965.031-.056.059-.114.094-.181l-1.619-.86c-.03.052-.056.1-.081.142-.113.211-.223.424-.34.633a.43.43,0,0,1-.759-.406q.585-1.1,1.178-2.2a.43.43,0,1,1,.764.394c-.065.131-.137.258-.2.388l-.246.468,1.627.863c.028-.049.049-.083.068-.118.122-.22.246-.44.364-.662a.149.149,0,0,1,.153-.091c.207.007.414,0,.621.015S27.368,93.967,27.592,93.988Z" transform="translate(0)" fill="#ef7622"/>
      <path id="Path_7" data-name="Path 7" d="M404.611,380.188c-.207,0-.415-.01-.621,0a1.216,1.216,0,0,1-.608-.14,2.871,2.871,0,1,1,4.1-2.38,2.778,2.778,0,0,1-1.872,2.48.57.57,0,0,1-.2.035C405.139,380.19,404.875,380.188,404.611,380.188Z" transform="translate(-376.25 -277.444)" fill="#ef7622"/>
      <path id="Path_8" data-name="Path 8" d="M73.586,380.217c-.24,0-.48.007-.719,0a1.063,1.063,0,0,1-.342-.065,2.871,2.871,0,1,1,2.111.01.9.9,0,0,1-.3.055C74.09,380.222,73.838,380.217,73.586,380.217Z" transform="translate(-61.36 -277.473)" fill="#ef7622"/>
      <path id="Path_9" data-name="Path 9" d="M215.161,277.649a1.848,1.848,0,0,1,1.153-.069.672.672,0,0,1,.37.3q.987,1.631,1.972,3.263a.184.184,0,0,0,.183.1c.662,0,1.324,0,1.986,0a.7.7,0,0,1,.737.533,5.179,5.179,0,0,1,.107.554c-.075,0-.115.008-.154.008-1.178,0-2.356,0-3.534,0a.187.187,0,0,1-.189-.112q-1.273-2.219-2.552-4.434C215.218,277.753,215.2,277.711,215.161,277.649Z" transform="translate(-198.76 -185.106)" fill="#ef7622"/>
    </g>
    <g id="Ellipse_37" data-name="Ellipse 37" transform="translate(33 565)" fill="none" stroke="#ef7622" stroke-width="6">
      <circle cx="24.5" cy="24.5" r="24.5" stroke="none"/>
      <circle cx="24.5" cy="24.5" r="21.5" fill="none"/>
    </g>
  </g>
</svg>
