<?xml version="1.0" encoding="utf-8"?>
<!-- Generator: Adobe Illustrator 26.5.1, SVG Export Plug-In . SVG Version: 6.00 Build 0)  -->
<svg version="1.1" xmlns="http://www.w3.org/2000/svg" xmlns:xlink="http://www.w3.org/1999/xlink" x="0px" y="0px"
	 viewBox="0 0 108 108" style="enable-background:new 0 0 108 108;" xml:space="preserve">

<g id="CMYK:_PMS_x5F_158C_x5F_BLACK">
</g>
<g id="CMYK:_WHITE">
</g>
<g id="CMYK:_BLACK">
	<g>
		<path style="fill:#EE7623"   d="M66.9,78c3.4-12.3,3.2-20.3,0.1-32c-2.7,0.4-5.5,0.9-8.2,1c2,3.4,1.5,7,1.1,10h-6.1h-6c-0.7-4-0.8-7,1-10.1
			c-2.9-0.2-5.8-0.6-8.7-1C37,57.7,37.9,67,40.2,78c0,0.1,0.2,0.2,0.1,0.2c1.5,0,3.4,0.7,4.2,0.1c1.8-1.2,3.2-2,4.2-2
			c0.1,0,0,0-0.1-0.1c-1.2-3.7-2.3-8.3-1-11.3h11.9c1.2,3,0.2,7.6-1,11.3c0,0.1,0,0.2-0.1,0.2c1.1,0,2.5,0.7,4.2,1.9
			c0.8,0.5,2.6-0.2,4.2-0.2C67,78.3,66.9,78.1,66.9,78z"/>
		<path style="fill:#FFFFFF" d="M53.4,47.5c-15.2,0-30.2-3.6-43.8-10.4c-0.6-0.3-0.9-1-0.8-1.5c0.1-0.7,0.3-1.4,0.4-2
			c0.1-0.7,0.2-1.4,0.4-2.1c0.1-0.4,0.4-0.6,0.8-0.6c0.2,0,0.4,0,0.5,0.1c9.2,4.6,19,7.6,29.1,9.1l0.2-6.2c0.2-4,1.8-7.4,3.2-10.7
			c0.5-1.1,1-2.2,1.4-3.3c1-2.4,1.5-4.6,1.7-6.6c0-0.3,0-0.6,0-0.9c0-0.6-0.1-1.2-0.2-1.8L46.3,10c-0.1-0.9-0.2-1.6-0.2-2.4
			c0-0.5,0.2-1,0.4-1.4c0.3-0.5,0.6-0.9,1-1.2c0.3-0.2,0.6-0.3,1.1-0.3c0.1,0,0.3,0,0.4,0c0.9,0.1,1.8,0.6,2.7,1.4
			c0.4,0.3,0.7,0.7,1,1.1c0.3,0.4,0.5,0.7,0.8,1c0.2,0.2,0.4,0.3,0.6,0.3c0.1,0,0.2,0,0.4-0.1c0.4-0.3,0.7-0.7,1-1.1
			c0.3-0.4,0.6-0.7,1-1.1c0.9-0.8,1.8-1.3,2.7-1.4c0.1,0,0.3,0,0.4,0c0.4,0,0.8,0.1,1,0.3c0.4,0.3,0.7,0.6,1,1.2
			c0.2,0.4,0.3,0.9,0.4,1.4c0.1,0.8,0,1.5-0.2,2.4l-0.1,0.5c-0.1,0.6-0.2,1.3-0.3,1.9c0,0.3,0,0.6,0,0.9c0.2,2,0.8,4.2,1.7,6.6
			c0.4,1.1,0.9,2.2,1.4,3.3c1.5,3.3,3,6.8,3.2,10.7l0.2,6.2c10.2-1.5,20-4.5,29.1-9.1c0.2-0.1,0.4-0.1,0.5-0.1
			c0.4,0,0.7,0.3,0.8,0.6c0.1,0.7,0.3,1.4,0.4,2.1c0.1,0.7,0.2,1.4,0.4,2c0.1,0.6-0.4,1.3-1,1.5c-13.6,6.8-28.4,10.4-43.7,10.4
			C54.5,47.5,53.4,47.5,53.4,47.5z"/>
		<path style="fill:#FFFFFF" d="M67.8,103.2c-1.4,0-2.7-0.3-3.9-0.6c-1.1-0.3-2.2-0.5-3.3-0.5c0,0-0.1,0.1-0.3,0.2c-0.4,0.3-0.9,0.7-1.5,0.7
			c-0.1,0-0.3,0-0.4,0c-0.7,0-1.5-0.2-2.2-0.3l-0.1,0c-0.4-0.1-0.7-0.2-1-0.5c-0.2-0.3-0.4-0.6-0.6-1c-0.2-0.6-0.3-1.2-0.5-1.8
			l-0.1-0.4c-1-4.8,0.2-9.6,1.3-14.2c0.5-2.1,1-4.3,1.3-6.3l0.2-1.4c0.1-0.6,0.7-1,1.5-1.1c0.1,0,0.2,0,0.2,0c0.7,0,1.3,0.3,1.8,0.4
			c1,0.4,1.9,1.1,2.8,1.7c0,0,0.1,0.1,0.5,0.1c0.4,0,0.9-0.1,1.4-0.2c0.6-0.1,1.3-0.2,1.9-0.2c0.4,0,0.8,0,1,0.1
			c1.8,0.5,1.9,1.7,1.9,2.4c-0.1,0.9-0.5,1.8-0.9,2.7c-0.2,0.4-0.3,0.7-0.4,0.9c0,1.3-0.6,2.9-1.3,4.6c-0.9,2.3-1.8,4.6-1,6.2
			c0.3,0.5,0.7,1,1.4,1.3c0.3,0.2,0.7,0.4,1.1,0.5c0.3,0.1,0.4,0.2,0.6,0.2c0,0,0.1,0,0.1,0c0.2,0,0.3-0.1,0.5-0.1
			c0.2-0.1,0.3-0.1,0.5-0.2l0.4-0.1c0.9-0.4,1.9-0.7,2.9-0.9c0.2,0,0.4,0,0.7,0c0.4,0,0.8,0.1,1.1,0.2c0.4,0.2,0.7,0.5,1,0.8
			l0.5,0.5c0.4,0.4,1,1.3,0.6,1.8c-0.3,0.3-0.6,0.6-1,0.8c-0.1,0.1-0.2,0.1-0.3,0.2c-0.5,0.3-1,0.6-1.5,0.9l-0.6,0.3
			c-0.3,0.2-0.6,0.3-0.9,0.5c-0.1,0.1-0.2,0.1-0.4,0.2c-0.1,0.1-0.2,0.1-0.3,0.2c-0.6,0.3-1,0.5-1.5,0.7
			C69.9,103,68.9,103.2,67.8,103.2z"/>
		<path style="fill:#FFFFFF" d="M39.5,103.2c-1,0-2.1-0.2-3.3-0.7c-0.5-0.2-1-0.4-1.5-0.7c-0.1-0.1-0.2-0.1-0.3-0.2c-0.1-0.1-0.2-0.1-0.4-0.2
			c-0.3-0.1-0.6-0.3-0.9-0.5l-0.6-0.3c-0.5-0.3-1-0.6-1.5-0.9c-0.1-0.1-0.2-0.1-0.3-0.2c-0.3-0.2-0.7-0.4-1-0.8
			c-0.4-0.5,0.2-1.4,0.6-1.8l0.5-0.5c0.3-0.3,0.6-0.6,1-0.8c0.3-0.1,0.7-0.2,1.1-0.2c0.2,0,0.5,0,0.7,0c1,0.1,2,0.5,2.9,0.9l0.4,0.1
			c0.2,0.1,0.3,0.1,0.5,0.2c0.2,0.1,0.3,0.1,0.5,0.1c0,0,0.1,0,0.1,0c0.2,0,0.3-0.1,0.5-0.1c0.5-0.2,0.9-0.4,1.2-0.5
			c0.6-0.4,1.1-0.8,1.4-1.3c0.8-1.6-0.1-4-1-6.2c-0.7-1.7-1.3-3.2-1.3-4.7c-0.1-0.2-0.2-0.5-0.4-0.8c-0.4-0.9-0.9-1.9-0.9-2.8
			c0-0.7,0.1-1.9,1.9-2.4c0.3-0.1,0.6-0.1,1-0.1c0.6,0,1.3,0.1,1.9,0.2c0.5,0.1,1,0.2,1.4,0.2c0.3,0,0.4-0.1,0.5-0.1
			c0.9-0.6,1.8-1.2,2.8-1.7c0.4-0.2,1.1-0.4,1.8-0.4c0.1,0,0.2,0,0.2,0c0.8,0.1,1.4,0.5,1.5,1.1l0.2,1.3c0.3,2.1,0.8,4.2,1.3,6.3
			c1.1,4.7,2.3,9.4,1.3,14.2l-0.1,0.4c-0.1,0.6-0.2,1.2-0.5,1.8c-0.2,0.4-0.4,0.8-0.6,1c-0.3,0.4-0.6,0.5-1,0.6l-0.1,0
			c-0.7,0.2-1.4,0.3-2.2,0.3c-0.1,0-0.3,0-0.4,0c-0.6-0.1-1.1-0.4-1.5-0.7c-0.2-0.1-0.3-0.2-0.4-0.3c-1,0-2,0.3-3.2,0.6
			C42.1,102.9,40.8,103.2,39.5,103.2z"/>
		<g>
			<path style="fill:#FFFFFF" d="M70.4,89.8c0.4,0,0.9,0.1,1.3,0.3c0.4,0.2,0.7,0.5,1,1c0.2,0.4,0.4,0.9,0.4,1.3c0,0.5-0.1,0.9-0.3,1.3
				c-0.2,0.4-0.6,0.7-1,1c-0.4,0.2-0.8,0.3-1.3,0.3c-0.5,0-0.9-0.1-1.3-0.3c-0.4-0.2-0.7-0.6-1-1c-0.2-0.4-0.3-0.8-0.3-1.3
				c0-0.5,0.1-0.9,0.4-1.3c0.2-0.4,0.6-0.7,1-1C69.5,89.9,69.9,89.8,70.4,89.8z M70.4,90.3c-0.4,0-0.7,0.1-1,0.3
				c-0.3,0.2-0.6,0.4-0.8,0.8c-0.2,0.3-0.3,0.7-0.3,1.1c0,0.4,0.1,0.7,0.3,1c0.2,0.3,0.4,0.6,0.8,0.8c0.3,0.2,0.7,0.3,1,0.3
				c0.4,0,0.7-0.1,1-0.3c0.3-0.2,0.6-0.4,0.8-0.8c0.2-0.3,0.3-0.7,0.3-1c0-0.4-0.1-0.7-0.3-1.1c-0.2-0.3-0.5-0.6-0.8-0.8
				C71.1,90.4,70.7,90.3,70.4,90.3z M69.2,93.8V91h0.6c0.5,0,0.8,0,0.9,0c0.2,0,0.3,0.1,0.4,0.1c0.1,0.1,0.2,0.1,0.3,0.3
				c0.1,0.1,0.1,0.3,0.1,0.4c0,0.2-0.1,0.4-0.2,0.5c-0.1,0.1-0.3,0.2-0.6,0.3c0.1,0,0.1,0.1,0.2,0.1c0,0,0.1,0.1,0.2,0.2
				c0,0,0.1,0.1,0.2,0.3l0.3,0.6h-0.7l-0.2-0.5c-0.2-0.3-0.3-0.5-0.4-0.6c-0.1-0.1-0.2-0.1-0.4-0.1h-0.1v1.1H69.2z M69.8,92.2H70
				c0.3,0,0.5,0,0.6,0c0.1,0,0.1-0.1,0.2-0.1c0-0.1,0.1-0.1,0.1-0.2c0-0.1,0-0.1-0.1-0.2c0-0.1-0.1-0.1-0.2-0.1c-0.1,0-0.3,0-0.6,0
				h-0.2V92.2z"/>
		</g>
		<path d="M76.9,97.1c-0.2-0.2-0.3-0.3-0.5-0.5c-0.3-0.3-0.6-0.6-1-0.7c-0.5-0.2-1.1-0.2-1.7-0.1c-1,0.1-1.9,0.5-2.9,0.8
			c-0.3,0.1-0.6,0.2-0.8,0.3c-0.2,0.1-0.5,0.2-0.7,0.1c-0.2,0-0.4-0.1-0.6-0.2c-0.4-0.1-0.8-0.3-1.2-0.5c-0.6-0.3-1.1-0.8-1.4-1.4
			c-0.9-1.7,0.1-4.1,1-6.4c0.6-1.6,1.3-3.2,1.3-4.6c0.1-0.3,0.3-0.6,0.4-0.9c0.4-0.9,0.8-1.8,0.9-2.7c0.1-0.8-0.2-1.8-1.7-2.2
			C67.1,77.8,66,78,65,78.1c-0.5,0.1-1,0.2-1.4,0.2c-0.3,0-0.5-0.1-0.6-0.1c-0.9-0.6-1.8-1.2-2.8-1.6c-0.6-0.3-1.3-0.5-1.9-0.4
			c-0.5,0-1.2,0.3-1.3,0.9c0,0.2-0.1,0.4-0.1,0.6c0,0.3-0.1,0.5-0.1,0.8c-0.3,2.1-0.8,4.3-1.3,6.3c-1.1,4.6-2.3,9.4-1.3,14.1
			c0.2,0.7,0.3,1.5,0.5,2.2c0.1,0.3,0.3,0.7,0.5,1c0.3,0.4,0.6,0.4,1,0.5c0.9,0.2,1.7,0.4,2.5,0.3c0.5,0,1-0.4,1.4-0.7
			c0.2-0.1,0.4-0.3,0.4-0.3c1.1,0,2.2,0.3,3.3,0.6c1.2,0.3,2.5,0.6,3.9,0.6c1.1,0,2.2-0.3,3.2-0.7c0.5-0.2,1-0.4,1.5-0.7
			c0.2-0.1,0.5-0.3,0.7-0.4c0.4-0.2,0.8-0.4,1.2-0.6c0.6-0.3,1.3-0.7,1.8-1.1c0.4-0.3,0.9-0.5,1.2-1C77.8,98.1,77.2,97.4,76.9,97.1z
			 M76,98.4c-0.1,0.1-0.3,0.2-0.4,0.2c-0.4,0.3-0.9,0.6-1.4,0.8l-0.6,0.3c-0.3,0.2-0.5,0.3-0.8,0.4c-0.1,0.1-0.3,0.1-0.4,0.2
			c-0.1,0.1-0.2,0.1-0.3,0.2c-0.5,0.3-1,0.5-1.4,0.6c-1,0.4-2,0.6-2.8,0.6c-1.2,0-2.4-0.3-3.6-0.6c-1.2-0.3-2.4-0.6-3.6-0.6l-0.2,0
			l-0.2,0.1c-0.2,0.1-0.3,0.2-0.7,0.4c-0.3,0.2-0.6,0.4-0.9,0.5c-0.1,0-0.2,0-0.3,0c-0.6,0-1.2-0.1-1.9-0.3l-0.1,0
			c-0.1,0-0.2-0.1-0.3-0.1c-0.2-0.2-0.3-0.4-0.4-0.7c-0.2-0.5-0.3-1-0.4-1.6l-0.1-0.4c-0.9-4.5,0.2-9.1,1.3-13.6
			c0.5-2.1,1.1-4.3,1.4-6.5l0.2-1.2c0.1,0,0.2-0.1,0.3-0.1c0,0,0.1,0,0.1,0c0.4,0,0.9,0.2,1.3,0.3c0.9,0.4,1.8,1,2.6,1.5
			c0.3,0.2,0.7,0.3,1.2,0.3c0.5,0,1-0.1,1.6-0.2c0.5-0.1,1.2-0.2,1.7-0.2c0.3,0,0.5,0,0.7,0.1c0.9,0.3,1,0.7,0.9,1.1
			c0,0.6-0.4,1.5-0.8,2.3c-0.2,0.3-0.3,0.7-0.4,1l-0.1,0.2l0,0.2c0,1.2-0.6,2.7-1.2,4.2c-1,2.5-2,5.2-0.9,7.3c0.4,0.7,1,1.4,1.9,1.9
			c0.4,0.2,0.8,0.4,1.4,0.6c0.3,0.1,0.5,0.2,0.9,0.2c0.1,0,0.2,0,0.3,0c0.4,0,0.7-0.1,1-0.2c0.1-0.1,0.3-0.1,0.5-0.2l0.4-0.1
			c0.9-0.3,1.7-0.7,2.6-0.8c0.2,0,0.3,0,0.5,0c0.3,0,0.5,0,0.6,0.1c0.2,0.1,0.5,0.4,0.6,0.5l0.5,0.5c0.1,0.1,0.2,0.2,0.3,0.3
			C76.3,98.2,76.1,98.3,76,98.4z"/>
		<path d="M98.2,31.6c-0.1-0.4-0.5-0.6-1-0.4c-9.4,4.7-19.3,7.7-29.4,9.1L67.5,34c-0.2-3.9-1.7-7.3-3.2-10.6c-0.5-1.1-1-2.2-1.4-3.3
			c-0.8-2.1-1.5-4.4-1.8-6.7c0-0.3,0-0.6,0-0.9c0-0.6,0.1-1.3,0.3-1.9c0-0.2,0.1-0.4,0.1-0.5c0.1-0.8,0.2-1.5,0.2-2.3
			c0-0.5-0.2-0.9-0.4-1.4c-0.2-0.5-0.5-0.8-0.9-1.1C59.9,5,59.4,5,59,5.1c-1,0.1-1.9,0.7-2.6,1.4c-0.3,0.3-0.7,0.7-0.9,1.1
			c-0.3,0.4-0.6,0.9-1,1.2c-0.4,0.3-0.8,0.2-1.2-0.2c-0.3-0.3-0.6-0.6-0.8-1c-0.3-0.4-0.6-0.7-0.9-1.1C50.8,5.8,50,5.2,49,5
			c-0.4-0.1-0.9,0-1.3,0.2c-0.4,0.3-0.7,0.6-0.9,1.1c-0.2,0.4-0.3,0.9-0.4,1.4c-0.1,0.8,0,1.5,0.2,2.3c0,0.2,0.1,0.4,0.1,0.5
			c0.1,0.6,0.2,1.3,0.3,1.9c0,0.3,0,0.6,0,0.9c-0.2,2.3-0.9,4.5-1.8,6.7c-0.4,1.1-0.9,2.2-1.4,3.3c-1.5,3.3-3,6.7-3.2,10.6l-0.2,6.4
			c-10.1-1.4-20.1-4.5-29.4-9.1c-0.5-0.2-0.9-0.1-1,0.4C9.5,33,9.3,34.3,9,35.7c-0.1,0.4,0.3,1,0.8,1.3C23.7,43.9,39,47.3,54,47.3
			c15,0,30.3-3.4,44.2-10.3c0.5-0.2,0.9-0.8,0.8-1.3C98.7,34.3,98.5,33,98.2,31.6z M41.6,34c0.2-3.7,1.7-7,3.1-10.2
			c0.5-1.1,1-2.2,1.4-3.3c1-2.5,1.6-4.8,1.8-6.9c0-0.4,0-0.8,0-1.1c0-0.7-0.2-1.4-0.3-2l-0.1-0.6c-0.1-0.8-0.2-1.4-0.1-2
			c0-0.4,0.1-0.7,0.3-1c0.2-0.3,0.3-0.5,0.5-0.6c0.1,0,0.2-0.1,0.4-0.1c0.1,0,0.2,0,0.2,0c0.6,0.1,1.3,0.4,1.9,1.1
			c0.3,0.3,0.6,0.6,0.8,0.9c0.3,0.5,0.6,0.8,0.9,1.1c0.6,0.6,1.1,0.7,1.5,0.7c0.4,0,0.8-0.1,1.1-0.4c0.6-0.4,1-1,1.3-1.4
			c0.2-0.3,0.5-0.6,0.8-0.9c0.5-0.4,1.2-1,1.9-1.1c0.1,0,0.2,0,0.2,0c0.2,0,0.3,0,0.4,0.1c0.2,0.1,0.4,0.3,0.5,0.6
			c0.1,0.3,0.2,0.6,0.3,1c0.1,0.6,0,1.3-0.1,2l-0.1,0.5c-0.1,0.7-0.2,1.3-0.3,2c0,0.3,0,0.7,0,1.1c0.2,2.2,0.8,4.4,1.8,7
			c0.4,1.1,0.9,2.2,1.4,3.3c1.4,3.2,2.9,6.6,3.1,10.3l0.1,2.9C58.2,38,49.8,38,41.5,37L41.6,34z M97.8,35.9
			C84.4,42.6,69.3,46,54.3,46H54c-0.1,0-0.2,0-0.2,0c-15,0-30.1-3.4-43.5-10.1c-0.1,0-0.2-0.1-0.2-0.1c0.1-0.7,0.2-1.3,0.4-1.9
			c0.1-0.5,0.2-1,0.3-1.5c7,3.5,14.5,6.1,22.2,7.7c3,0.7,6,1.2,9,1.6c3.9,0.5,7.9,0.7,11.8,0.8c0.1,0,0.1,0,0.2,0v0c0,0,0.2,0,0.3,0
			c3.9,0,7.9-0.3,11.8-0.8c3-0.4,6.1-0.9,9-1.6c7.7-1.7,15.2-4.3,22.2-7.7c0.1,0.5,0.2,1,0.3,1.5c0.1,0.7,0.2,1.3,0.4,1.9
			C97.9,35.8,97.9,35.9,97.8,35.9z"/>
		<path d="M51.8,84.7c-0.5-2.1-1-4.3-1.3-6.3c0-0.3-0.1-0.5-0.1-0.8c0-0.2-0.1-0.4-0.1-0.6c-0.1-0.6-0.8-0.8-1.3-0.9
			c-0.7-0.1-1.3,0.2-1.9,0.4c-1,0.4-1.9,1-2.8,1.6c-0.1,0.1-0.2,0.1-0.6,0.1c-0.4,0-0.9-0.1-1.4-0.2c-1-0.2-2.1-0.3-2.9-0.1
			c-1.5,0.4-1.8,1.4-1.7,2.2c0.1,0.8,0.5,1.8,0.9,2.7c0.1,0.3,0.3,0.6,0.4,0.9c0,1.4,0.6,2.9,1.3,4.6c0.9,2.3,1.8,4.7,1,6.4
			c-0.3,0.6-0.8,1.1-1.4,1.4c-0.4,0.2-0.8,0.4-1.2,0.5c-0.2,0.1-0.4,0.2-0.6,0.2c-0.3,0-0.5,0-0.7-0.1c-0.3-0.1-0.6-0.2-0.8-0.3
			c-0.9-0.4-1.9-0.7-2.9-0.8c-0.6-0.1-1.2-0.1-1.7,0.1c-0.3,0.1-0.7,0.4-1,0.7c-0.2,0.2-0.3,0.3-0.5,0.5c-0.3,0.3-0.9,1.1-0.6,1.5
			c0.3,0.4,0.8,0.7,1.2,1c0.6,0.4,1.2,0.7,1.8,1.1c0.4,0.2,0.8,0.4,1.2,0.6c0.2,0.1,0.5,0.2,0.7,0.4c0.5,0.2,1,0.5,1.5,0.7
			c1,0.4,2.1,0.7,3.2,0.7c1.3,0,2.6-0.3,3.9-0.6c1.1-0.3,2.2-0.5,3.3-0.6c0.1,0,0.3,0.2,0.4,0.3c0.4,0.3,0.8,0.6,1.4,0.7
			c0.9,0.1,1.7-0.1,2.5-0.3c0.5-0.1,0.7-0.1,1-0.5c0.2-0.3,0.4-0.6,0.5-1c0.3-0.7,0.4-1.4,0.5-2.2C54.1,94.1,53,89.3,51.8,84.7z
			 M52.1,98.6L52,99c-0.1,0.6-0.2,1.1-0.4,1.6c-0.1,0.3-0.2,0.5-0.4,0.7c-0.1,0.1-0.2,0.1-0.3,0.1l-0.1,0c-0.7,0.2-1.3,0.3-1.9,0.3
			c-0.1,0-0.2,0-0.3,0c-0.2,0-0.6-0.3-0.8-0.5c-0.4-0.3-0.5-0.4-0.7-0.4l-0.2-0.1l-0.2,0c-1.2,0-2.3,0.3-3.5,0.6
			c-1.2,0.3-2.4,0.6-3.6,0.6c-0.9,0-1.8-0.2-2.8-0.6c-0.4-0.2-0.9-0.4-1.4-0.6c-0.1-0.1-0.2-0.1-0.3-0.2c-0.1-0.1-0.3-0.1-0.4-0.2
			c-0.3-0.1-0.5-0.3-0.8-0.4l-0.6-0.3c-0.5-0.3-1-0.5-1.4-0.8c-0.1-0.1-0.2-0.2-0.4-0.2c-0.1-0.1-0.3-0.2-0.4-0.3
			c0.1-0.1,0.2-0.2,0.3-0.3l0.5-0.5c0.1-0.1,0.4-0.4,0.6-0.5c0.2-0.1,0.4-0.1,0.6-0.1c0.2,0,0.3,0,0.5,0c0.9,0.1,1.8,0.4,2.6,0.8
			l0.4,0.1c0.2,0.1,0.3,0.1,0.5,0.2c0.3,0.1,0.6,0.2,1,0.2c0.1,0,0.2,0,0.3,0c0.3,0,0.6-0.1,0.8-0.2c0.6-0.2,1-0.4,1.4-0.6
			c0.9-0.5,1.5-1.1,1.9-1.9c1.1-2.1,0.1-4.8-0.9-7.3c-0.6-1.6-1.2-3-1.2-4.2l0-0.2L40,83.4c-0.1-0.3-0.3-0.7-0.4-1
			c-0.4-0.8-0.8-1.7-0.8-2.3c0-0.4,0-0.8,0.9-1.1c0.2,0,0.4-0.1,0.7-0.1c0.5,0,1.2,0.1,1.7,0.2c0.6,0.1,1.1,0.2,1.6,0.2
			c0.5,0,0.9-0.1,1.2-0.3c0.8-0.6,1.7-1.1,2.6-1.5c0.3-0.1,0.8-0.3,1.3-0.3c0,0,0.1,0,0.1,0c0.2,0,0.3,0.1,0.3,0.1l0.2,1.3
			c0.3,2.1,0.8,4.3,1.4,6.4C51.9,89.4,53,94.1,52.1,98.6z"/>
	</g>
</g>
</svg>
