<svg xmlns="http://www.w3.org/2000/svg" width="49" height="49" viewBox="0 0 49 49">
  <g id="Group_47" data-name="Group 47" transform="translate(-33 -285)">
    <path id="car-solid" d="M1.988,40.273l1.767-5.046A4.818,4.818,0,0,1,8.3,32h9.1a4.819,4.819,0,0,1,4.548,3.227l1.767,5.046A3.219,3.219,0,0,1,25.7,43.245v9.638A1.6,1.6,0,0,1,24.1,54.49H22.49a1.6,1.6,0,0,1-1.606-1.606v-2.41H4.819v2.41A1.606,1.606,0,0,1,3.213,54.49H1.606A1.606,1.606,0,0,1,0,52.883V43.245a3.215,3.215,0,0,1,1.988-2.972Zm3.488-.241H20.226l-1.31-3.745A1.608,1.608,0,0,0,17.4,35.213H8.3a1.608,1.608,0,0,0-1.516,1.074Zm-.658,3.213a1.606,1.606,0,1,0,1.606,1.606A1.606,1.606,0,0,0,4.819,43.245Zm16.064,3.213a1.606,1.606,0,1,0-1.606-1.606A1.6,1.6,0,0,0,20.883,46.458Z" transform="translate(44.649 266)" fill="#ef7622"/>
    <g id="Ellipse_34" data-name="Ellipse 34" transform="translate(33 285)" fill="none" stroke="#ef7622" stroke-width="6">
      <circle cx="24.5" cy="24.5" r="24.5" stroke="none"/>
      <circle cx="24.5" cy="24.5" r="21.5" fill="none"/>
    </g>
  </g>
</svg>
