<svg xmlns="http://www.w3.org/2000/svg" width="49" height="49" viewBox="0 0 49 49">
  <g id="Group_49" data-name="Group 49" transform="translate(-33 -473)">
    <g id="Group_43" data-name="Group 43" transform="translate(10.069 9.516)">
      <path id="train-solid" d="M15.515,0a4.232,4.232,0,0,1,4.231,4.231V15.515A4.267,4.267,0,0,1,16.172,19.7c-3.982,0-3.478.048-3.478.048H7.052c-2.815,0-1.88-.048-3.476-.048A4.267,4.267,0,0,1,0,15.515V4.231A4.231,4.231,0,0,1,4.231,0ZM2.821,8.463a1.41,1.41,0,0,0,1.41,1.41H15.515a1.409,1.409,0,0,0,1.41-1.41V4.231a1.41,1.41,0,0,0-1.41-1.41H4.231a1.411,1.411,0,0,0-1.41,1.41Zm7.052,8.463A2.116,2.116,0,1,0,7.758,14.81,2.116,2.116,0,0,0,9.873,16.926Z" transform="translate(37.714 472.286)" fill="#ef7622"/>
      <path id="train-track-solid" d="M9.481,34.811h6.427l-.322-.964a1.412,1.412,0,0,1,2.68-.892l.617,1.857h1.569a1.41,1.41,0,0,1,0,2.821h-.63l.943,2.821h1.45a1.41,1.41,0,0,1,0,2.821H21.7l.939,2.821h1.336a1.41,1.41,0,0,1,0,2.821h-.392l.322.965a1.412,1.412,0,1,1-2.68.89l-.617-1.856H4.778l-.619,1.856a1.41,1.41,0,1,1-2.676-.89l.322-.965H1.41a1.41,1.41,0,0,1,0-2.821H2.745l.94-2.821H3.174a1.41,1.41,0,0,1,0-2.821h1.45l.943-2.821h-.63a1.41,1.41,0,0,1,0-2.821H6.506l.617-1.857a1.412,1.412,0,0,1,2.68.892Zm-.943,2.821L7.6,40.453H17.79l-.939-2.821Zm10.191,5.642H6.66l-.943,2.821H19.672Z" transform="translate(34.893 452.941)" fill="#ef7622"/>
    </g>
    <g id="Ellipse_36" data-name="Ellipse 36" transform="translate(33 473)" fill="none" stroke="#ef7622" stroke-width="6">
      <circle cx="24.5" cy="24.5" r="24.5" stroke="none"/>
      <circle cx="24.5" cy="24.5" r="21.5" fill="none"/>
    </g>
  </g>
</svg>
